<svg width="267" height="44" viewBox="0 0 267 44" fill="none" xmlns="http://www.w3.org/2000/svg">
<path d="M29.5186 11.3947C29.5186 15.5528 27.7195 18.7113 24.1211 20.8703C26.0802 21.59 27.7195 22.8294 29.0389 24.5886C30.3583 26.3478 31.018 28.8466 31.018 32.0851C31.018 35.2836 29.8185 37.8225 27.4196 39.7016C25.0607 41.5807 21.6623 42.5203 17.2243 42.5203H3.07091C2.39122 42.5203 1.83148 42.3004 1.39169 41.8606C0.951893 41.3808 0.731995 40.7611 0.731995 40.0014V1.61925C0.731995 1.17945 0.791967 0.899584 0.911911 0.779639C1.07184 0.619713 1.3717 0.53975 1.81149 0.53975H15.4852C24.8408 0.53975 29.5186 4.15807 29.5186 11.3947ZM12.2467 10.2552V18.1116H12.5465C16.3847 18.1116 18.3038 16.8322 18.3038 14.2734C18.3038 12.874 17.924 11.8545 17.1644 11.2148C16.4447 10.5751 15.2253 10.2552 13.5061 10.2552H12.2467ZM12.2467 25.1883V32.9847H13.3262C15.0454 32.9847 16.3048 32.6649 17.1044 32.0252C17.904 31.3854 18.3038 30.3659 18.3038 28.9666C18.3038 27.5672 17.924 26.5877 17.1644 26.0279C16.4447 25.4682 15.2253 25.1883 13.5061 25.1883H12.2467Z" fill="black"/>
<path d="M53.4925 43.12C47.8951 43.12 43.3172 41.2809 39.7589 37.6026C36.2405 33.9243 34.4813 28.5668 34.4813 21.53C34.4813 14.4533 36.2605 9.09578 39.8189 5.45747C43.4172 1.81916 48.0351 0 53.6724 0C59.3498 0 63.9277 1.79917 67.4061 5.3975C70.8845 8.95585 72.6236 14.3733 72.6236 21.65C72.6236 28.8866 70.8445 34.2841 67.2861 37.8425C63.7278 41.3608 59.1299 43.12 53.4925 43.12ZM53.5525 11.5147C51.6334 11.5147 50.0141 12.3943 48.6948 14.1534C47.4153 15.9126 46.7756 18.3915 46.7756 21.59C46.7756 24.7485 47.3954 27.1874 48.6348 28.9066C49.8742 30.5858 51.4935 31.4254 53.4925 31.4254C55.5316 31.4254 57.1708 30.5658 58.4102 28.8466C59.6897 27.1274 60.3294 24.6686 60.3294 21.47C60.3294 18.2715 59.6697 15.8127 58.3503 14.0935C57.0709 12.3743 55.4716 11.5147 53.5525 11.5147Z" fill="black"/>
<path d="M95.2505 43.12C89.6531 43.12 85.0752 41.2809 81.5169 37.6026C77.9985 33.9243 76.2393 28.5668 76.2393 21.53C76.2393 14.4533 78.0185 9.09578 81.5768 5.45747C85.1752 1.81916 89.793 0 95.4304 0C101.108 0 105.686 1.79917 109.164 5.3975C112.642 8.95585 114.382 14.3733 114.382 21.65C114.382 28.8866 112.602 34.2841 109.044 37.8425C105.486 41.3608 100.888 43.12 95.2505 43.12ZM95.3105 11.5147C93.3914 11.5147 91.7721 12.3943 90.4527 14.1534C89.1733 15.9126 88.5336 18.3915 88.5336 21.59C88.5336 24.7485 89.1533 27.1874 90.3927 28.9066C91.6322 30.5858 93.2514 31.4254 95.2505 31.4254C97.2896 31.4254 98.9288 30.5658 100.168 28.8466C101.448 27.1274 102.087 24.6686 102.087 21.47C102.087 18.2715 101.428 15.8127 100.108 14.0935C98.8288 12.3743 97.2296 11.5147 95.3105 11.5147Z" fill="black"/>
<path d="M131.191 41.6807C131.191 42.2804 129.312 42.5803 125.554 42.5803L122.195 42.4003C120.196 42.2404 119.197 41.9605 119.197 41.5607V1.31939C119.197 0.639703 121.196 0.299861 125.194 0.299861C129.192 0.299861 131.191 0.639703 131.191 1.31939V16.6723L138.508 1.31939C138.788 0.759649 140.387 0.479778 143.306 0.479778C148.623 0.479778 151.422 0.939565 151.702 1.85914C151.702 1.9391 151.682 2.01906 151.642 2.09903L141.207 20.9303L153.321 37.6625C153.321 37.7425 152.941 38.0823 152.181 38.6821C150.342 40.2813 148.183 41.5407 145.704 42.4603C144.945 42.7402 144.185 42.8801 143.426 42.8801L141.986 42.7602C140.707 42.4403 139.707 41.6207 138.988 40.3013L132.151 27.2274H131.191V41.6807Z" fill="black"/>
<path d="M157.946 27.8871C158.705 28.4868 160.005 29.3064 161.844 30.3459C163.723 31.3854 165.502 31.9052 167.182 31.9052C168.901 31.9052 169.76 31.2455 169.76 29.9261C169.76 29.3264 169.52 28.8066 169.041 28.3668C168.561 27.8871 167.681 27.3473 166.402 26.7476C165.122 26.1479 164.163 25.6881 163.523 25.3682C162.884 25.0084 162.024 24.4487 160.944 23.689C159.905 22.8894 159.105 22.0698 158.546 21.2302C156.946 18.9512 156.147 16.0526 156.147 12.5342C156.147 9.01582 157.446 6.05719 160.045 3.65831C162.684 1.21944 166.122 0 170.36 0C173.239 0 175.897 0.319852 178.336 0.959557C180.775 1.55928 182.035 2.35891 182.115 3.35844C182.115 3.47839 182.115 3.59833 182.115 3.71828C182.115 5.11763 181.675 6.8968 180.795 9.0558C179.916 11.1748 179.296 12.3543 178.936 12.5942C176.377 11.2748 174.078 10.6151 172.039 10.6151C170.04 10.6151 169.041 11.3347 169.041 12.7741C169.041 13.6537 169.78 14.4333 171.26 15.113C171.579 15.2729 172.039 15.4928 172.639 15.7727C173.239 16.0526 173.918 16.3924 174.678 16.7922C175.478 17.152 176.317 17.6318 177.197 18.2315C178.116 18.7913 179.096 19.5509 180.135 20.5105C182.255 22.5096 183.314 25.1483 183.314 28.4268C183.314 32.7048 182.135 36.2032 179.776 38.922C177.417 41.6407 173.778 43.04 168.861 43.12C166.462 43.12 164.283 42.9201 162.324 42.5203C160.405 42.1205 158.725 41.3408 157.286 40.1814C155.847 39.0219 155.127 37.6226 155.127 35.9833C155.127 34.3441 155.427 32.7248 156.027 31.1256C156.626 29.4863 157.266 28.4068 157.946 27.8871Z" fill="black"/>
<path d="M219.59 1.7392C219.59 0.939565 221.749 0.53975 226.067 0.53975C230.425 0.53975 232.604 0.939565 232.604 1.7392V29.2664C232.604 33.3445 231.145 36.683 228.226 39.2818C225.308 41.8406 221.27 43.12 216.112 43.12C210.994 43.12 206.816 41.8006 203.578 39.1618C200.379 36.4831 198.78 32.8848 198.78 28.3668V1.79917C198.78 0.999537 200.939 0.599721 205.257 0.599721C209.615 0.599721 211.794 0.999537 211.794 1.79917V28.8466C211.794 29.6463 212.214 30.286 213.054 30.7657C213.933 31.2455 214.853 31.4854 215.812 31.4854C216.772 31.4854 217.631 31.2655 218.391 30.8257C219.191 30.3859 219.59 29.7262 219.59 28.8466V1.7392Z" fill="#199635"/>
<path d="M242.855 42.6402C239.217 42.6402 237.398 42.2404 237.398 41.4408V2.57881C237.398 1.21944 238.018 0.53975 239.257 0.53975H249.812C255.73 0.53975 259.988 1.75918 262.586 4.19805C265.225 6.63692 266.544 10.1753 266.544 14.8131C266.544 18.6514 265.305 22.1697 262.826 25.3682C261.587 26.9675 259.768 28.2469 257.369 29.2065C254.97 30.166 252.171 30.6458 248.973 30.6458V41.3808C248.973 41.8606 248.213 42.2004 246.694 42.4003C245.214 42.5603 243.935 42.6402 242.855 42.6402ZM248.973 10.9749V20.4505H249.752C251.152 20.4505 252.331 20.0107 253.291 19.1311C254.25 18.2515 254.73 17.0121 254.73 15.4129C254.73 13.8136 254.39 12.6741 253.71 11.9944C253.071 11.3148 251.911 10.9749 250.232 10.9749H248.973Z" fill="#199635"/>
</svg>
