<svg width="54" height="10" viewBox="0 0 54 10" fill="none" xmlns="http://www.w3.org/2000/svg">
<path d="M6.49199 2.772C6.49199 3.604 6.13199 4.236 5.41199 4.668C5.80399 4.812 6.13199 5.06 6.396 5.412C6.66 5.764 6.792 6.264 6.792 6.912C6.792 7.552 6.552 8.06001 6.072 8.43601C5.6 8.81201 4.91999 9 4.03199 9H1.19999C1.06399 9 0.951995 8.956 0.863995 8.868C0.775995 8.772 0.731995 8.64801 0.731995 8.49601V0.816005C0.731995 0.728005 0.743995 0.672005 0.767995 0.648005C0.799995 0.616004 0.859995 0.600004 0.947995 0.600004H3.68399C5.55599 0.600004 6.49199 1.324 6.49199 2.772ZM3.03599 2.544V4.116H3.09599C3.86399 4.116 4.24799 3.86 4.24799 3.348C4.24799 3.068 4.17199 2.864 4.01999 2.736C3.87599 2.608 3.63199 2.544 3.28799 2.544H3.03599ZM3.03599 5.532V7.092H3.25199C3.59599 7.092 3.84799 7.028 4.00799 6.9C4.16799 6.772 4.24799 6.568 4.24799 6.288C4.24799 6.008 4.17199 5.81201 4.01999 5.70001C3.87599 5.58801 3.63199 5.532 3.28799 5.532H3.03599Z" fill="black"/>
<path d="M11.289 9.12C10.169 9.12 9.25299 8.75201 8.54099 8.01601C7.83699 7.28 7.48499 6.20801 7.48499 4.8C7.48499 3.38401 7.84099 2.312 8.55299 1.584C9.27299 0.856004 10.197 0.492004 11.325 0.492004C12.461 0.492004 13.377 0.852005 14.073 1.572C14.769 2.284 15.117 3.368 15.117 4.824C15.117 6.272 14.761 7.352 14.049 8.064C13.337 8.768 12.417 9.12 11.289 9.12ZM11.301 2.796C10.917 2.796 10.593 2.972 10.329 3.324C10.073 3.676 9.94499 4.172 9.94499 4.81201C9.94499 5.44401 10.069 5.932 10.317 6.276C10.565 6.612 10.889 6.78 11.289 6.78C11.697 6.78 12.025 6.608 12.273 6.264C12.529 5.92 12.657 5.428 12.657 4.788C12.657 4.148 12.525 3.656 12.261 3.312C12.005 2.968 11.685 2.796 11.301 2.796Z" fill="black"/>
<path d="M19.6445 9.12C18.5245 9.12 17.6085 8.75201 16.8965 8.01601C16.1925 7.28 15.8405 6.20801 15.8405 4.8C15.8405 3.38401 16.1965 2.312 16.9085 1.584C17.6285 0.856004 18.5525 0.492004 19.6805 0.492004C20.8165 0.492004 21.7325 0.852005 22.4285 1.572C23.1245 2.284 23.4725 3.368 23.4725 4.824C23.4725 6.272 23.1165 7.352 22.4045 8.064C21.6925 8.768 20.7725 9.12 19.6445 9.12ZM19.6565 2.796C19.2725 2.796 18.9485 2.972 18.6845 3.324C18.4285 3.676 18.3005 4.172 18.3005 4.81201C18.3005 5.44401 18.4245 5.932 18.6725 6.276C18.9205 6.612 19.2445 6.78 19.6445 6.78C20.0525 6.78 20.3805 6.608 20.6285 6.264C20.8845 5.92 21.0125 5.428 21.0125 4.788C21.0125 4.148 20.8805 3.656 20.6165 3.312C20.3605 2.968 20.0405 2.796 19.6565 2.796Z" fill="black"/>
<path d="M26.8359 8.832C26.8359 8.952 26.4599 9.012 25.7079 9.012L25.0359 8.976C24.6359 8.944 24.4359 8.88801 24.4359 8.80801V0.756005C24.4359 0.620004 24.8359 0.552004 25.6359 0.552004C26.4359 0.552004 26.8359 0.620004 26.8359 0.756005V3.828L28.2999 0.756005C28.3559 0.644005 28.6759 0.588005 29.2599 0.588005C30.3239 0.588005 30.8839 0.680005 30.9399 0.864005C30.9399 0.880004 30.9359 0.896004 30.9279 0.912005L28.8399 4.68001L31.2639 8.02801C31.2639 8.04401 31.1879 8.11201 31.0359 8.23201C30.6679 8.55201 30.2359 8.804 29.7399 8.988C29.5879 9.044 29.4359 9.07201 29.2839 9.07201L28.9959 9.04801C28.7399 8.98401 28.5399 8.82001 28.3959 8.55601L27.0279 5.94H26.8359V8.832Z" fill="black"/>
<path d="M32.1893 6.072C32.3413 6.192 32.6013 6.356 32.9693 6.564C33.3453 6.772 33.7013 6.87601 34.0373 6.87601C34.3813 6.87601 34.5533 6.744 34.5533 6.48C34.5533 6.36 34.5053 6.25601 34.4093 6.168C34.3133 6.07201 34.1373 5.964 33.8813 5.844C33.6253 5.724 33.4333 5.632 33.3053 5.568C33.1773 5.496 33.0053 5.38401 32.7893 5.23201C32.5813 5.07201 32.4213 4.908 32.3093 4.74C31.9893 4.284 31.8293 3.704 31.8293 3.00001C31.8293 2.29601 32.0893 1.70401 32.6093 1.224C33.1373 0.736005 33.8253 0.492004 34.6733 0.492004C35.2493 0.492004 35.7813 0.556005 36.2693 0.684005C36.7573 0.804005 37.0093 0.964005 37.0253 1.164C37.0253 1.188 37.0253 1.212 37.0253 1.236C37.0253 1.516 36.9373 1.872 36.7613 2.304C36.5853 2.728 36.4613 2.964 36.3893 3.012C35.8773 2.748 35.4173 2.616 35.0093 2.616C34.6093 2.616 34.4093 2.76 34.4093 3.048C34.4093 3.224 34.5573 3.38 34.8533 3.516C34.9173 3.548 35.0093 3.59201 35.1293 3.64801C35.2493 3.70401 35.3853 3.772 35.5373 3.852C35.6973 3.924 35.8653 4.02 36.0413 4.14C36.2253 4.252 36.4213 4.404 36.6293 4.596C37.0533 4.99601 37.2653 5.52401 37.2653 6.18001C37.2653 7.03601 37.0293 7.736 36.5573 8.28C36.0853 8.82401 35.3573 9.104 34.3733 9.12C33.8933 9.12 33.4573 9.08 33.0653 9C32.6813 8.92 32.3453 8.76401 32.0573 8.53201C31.7693 8.30001 31.6253 8.02001 31.6253 7.69201C31.6253 7.36401 31.6853 7.04001 31.8053 6.72001C31.9253 6.39201 32.0533 6.176 32.1893 6.072Z" fill="black"/>
<path d="M44.524 0.840005C44.524 0.680005 44.956 0.600004 45.82 0.600004C46.692 0.600004 47.128 0.680005 47.128 0.840005V6.348C47.128 7.164 46.836 7.83201 46.252 8.35201C45.668 8.86401 44.86 9.12 43.828 9.12C42.804 9.12 41.968 8.856 41.32 8.328C40.68 7.792 40.36 7.07201 40.36 6.168V0.852005C40.36 0.692004 40.792 0.612004 41.656 0.612004C42.528 0.612004 42.964 0.692004 42.964 0.852005V6.264C42.964 6.424 43.048 6.55201 43.216 6.64801C43.392 6.744 43.576 6.792 43.768 6.792C43.96 6.792 44.132 6.74801 44.284 6.66001C44.444 6.57201 44.524 6.44 44.524 6.264V0.840005Z" fill="#199635"/>
<path d="M49.1791 9.024C48.4511 9.024 48.0872 8.94401 48.0872 8.78401V1.008C48.0872 0.736005 48.2112 0.600004 48.4592 0.600004H50.5712C51.7552 0.600004 52.6072 0.844004 53.1272 1.332C53.6552 1.82 53.9192 2.528 53.9192 3.456C53.9192 4.224 53.6712 4.928 53.1752 5.568C52.9272 5.888 52.5632 6.144 52.0832 6.336C51.6032 6.528 51.0432 6.624 50.4032 6.624V8.77201C50.4032 8.86801 50.2512 8.936 49.9472 8.976C49.6512 9.008 49.3951 9.024 49.1791 9.024ZM50.4032 2.688V4.584H50.5592C50.8392 4.584 51.0752 4.496 51.2672 4.32C51.4592 4.144 51.5551 3.896 51.5551 3.576C51.5551 3.256 51.4872 3.028 51.3512 2.892C51.2232 2.756 50.9912 2.688 50.6552 2.688H50.4032Z" fill="#199635"/>
</svg>
